<?xml version="1.0" encoding="UTF-8"?> <svg xmlns="http://www.w3.org/2000/svg" width="209" height="98" viewBox="0 0 209 98" fill="none"> <g clip-path="url(#clip0_1484_8)"> <path d="M28.5303 49.0004L46.8903 38.4004L68.7903 51.0004V53.5204L46.8903 40.9004L28.5303 51.5004V49.0004ZM28.6303 56.7504L46.8903 46.1804L68.7903 58.8204V56.3004L46.8903 43.6504L28.5303 54.2504V54.6304C28.5303 55.7404 28.6303 56.7204 28.6303 56.7204V56.7504Z" fill="#FDC300"></path> <path fill-rule="evenodd" clip-rule="evenodd" d="M28.53 54.25V54.63C28.53 55.74 28.63 56.72 28.63 56.72C28.6311 57.6341 28.8041 58.5398 29.14 59.39L46.9 49.14L68.79 61.78V65.85L46.9 78.49L30.67 68.39L34.21 66.39L46.9 74.42L65.26 63.81L46.9 53.21L27.11 64.63C25.8251 62.1123 25.1051 59.3446 25 56.52C25 56.15 25 44.15 25 44.15L46.9 31.51L68.79 44.14V48.2L46.9 35.57L28.53 46.18V54.25ZM25 22V38.33L28.53 36.33V25.53H65.26V36.3L68.79 38.3V22H25Z" fill="#123274"></path> <path fill-rule="evenodd" clip-rule="evenodd" d="M169.71 38.2297H175.25L172.48 31.5397L169.71 38.2297ZM176.11 40.3197H168.84L167.27 44.0897H164.9L171.7 27.7197H173.25L180.05 44.0897H177.68L176.11 40.3197ZM160.5 27.7197V44.0897H158.31V29.8097H152.63L151.84 39.1597C151.55 42.6397 149.45 44.1097 146.84 44.1097H146.26V41.9997H146.63C148.49 41.9997 149.5 40.9197 149.69 38.7097L150.69 27.7097L160.5 27.7197ZM134.37 42.2797C133.528 42.3045 132.689 42.1571 131.906 41.8464C131.122 41.5357 130.41 41.0683 129.814 40.4728C129.218 39.8773 128.749 39.1664 128.437 38.3834C128.125 37.6005 127.977 36.7621 128 35.9197C127.966 35.0653 128.105 34.2128 128.409 33.4134C128.712 32.614 129.174 31.8841 129.767 31.2676C130.359 30.6511 131.07 30.1606 131.857 29.8255C132.644 29.4904 133.49 29.3177 134.345 29.3177C135.2 29.3177 136.046 29.4904 136.833 29.8255C137.62 30.1606 138.331 30.6511 138.923 31.2676C139.516 31.8841 139.978 32.614 140.281 33.4134C140.585 34.2128 140.724 35.0653 140.69 35.9197C140.715 36.7582 140.568 37.5929 140.26 38.3731C139.952 39.1532 139.488 39.8624 138.896 40.4574C138.305 41.0525 137.599 41.5209 136.821 41.8342C136.042 42.1475 135.209 42.2991 134.37 42.2797V42.2797ZM134.37 44.3797C135.495 44.4182 136.616 44.2263 137.664 43.8158C138.713 43.4053 139.666 42.7849 140.466 41.9926C141.265 41.2004 141.895 40.253 142.315 39.2087C142.736 38.1643 142.938 37.0451 142.91 35.9197C142.834 33.7066 141.902 31.6095 140.31 30.0707C138.717 28.532 136.589 27.6719 134.375 27.6719C132.161 27.6719 130.033 28.532 128.441 30.0707C126.848 31.6095 125.916 33.7066 125.84 35.9197C125.812 37.0442 126.014 38.1626 126.434 39.2062C126.854 40.2499 127.482 41.1968 128.281 41.9889C129.08 42.781 130.032 43.4017 131.079 43.8128C132.126 44.2239 133.246 44.4168 134.37 44.3797V44.3797ZM112.43 44.1097H110.24V27.7197H112.43V34.5597H114.15L119.51 27.7197H122.17L116 35.5997L122.72 44.1097H120.06L114.16 36.6497H112.43V44.1097ZM103.53 27.7197V44.1097H85.45V27.7197H87.64V41.9997H93.4V27.7197H95.59V41.9997H101.34V27.7197H103.53ZM155.58 62.5997H151.81V58.9997H155.58C156.063 58.9997 156.526 59.1914 156.867 59.5328C157.208 59.8741 157.4 60.337 157.4 60.8197C157.4 61.3024 157.208 61.7653 156.867 62.1066C156.526 62.4479 156.063 62.6397 155.58 62.6397V62.5997ZM155.19 55.7597H151.81V52.5897H155.19C155.416 52.5585 155.647 52.5761 155.866 52.6415C156.085 52.7068 156.288 52.8183 156.46 52.9685C156.632 53.1187 156.77 53.3041 156.865 53.5121C156.96 53.7202 157.009 53.9461 157.009 54.1747C157.009 54.4033 156.96 54.6292 156.865 54.8373C156.77 55.0453 156.632 55.2307 156.46 55.3809C156.288 55.531 156.085 55.6426 155.866 55.7079C155.647 55.7733 155.416 55.7909 155.19 55.7597V55.7597ZM158.28 57.1297C158.901 56.7679 159.418 56.2519 159.78 55.6317C160.143 55.0115 160.339 54.3081 160.35 53.5897C160.35 51.1697 158.23 49.3997 155.35 49.3997H148.35V65.7897H155.54C158.54 65.7897 160.84 63.7897 160.86 61.1197C160.913 60.2662 160.691 59.4182 160.227 58.7001C159.762 57.982 159.08 57.4316 158.28 57.1297V57.1297ZM136.87 66.1997C131.71 66.1997 128.03 62.6097 128.03 57.5897C128.03 52.5697 131.71 48.9997 136.87 48.9997C142.03 48.9997 145.71 52.5997 145.71 57.6097C145.71 62.6197 142 66.1997 136.87 66.1997ZM136.87 52.1997C136.156 52.1674 135.444 52.2858 134.779 52.547C134.114 52.8081 133.512 53.2064 133.011 53.7157C132.51 54.225 132.122 54.8341 131.872 55.5033C131.622 56.1724 131.516 56.8867 131.56 57.5997C131.56 58.297 131.697 58.9875 131.964 59.6317C132.231 60.276 132.622 60.8613 133.115 61.3544C133.608 61.8475 134.194 62.2386 134.838 62.5055C135.482 62.7723 136.173 62.9097 136.87 62.9097C137.567 62.9097 138.258 62.7723 138.902 62.5055C139.546 62.2386 140.132 61.8475 140.625 61.3544C141.118 60.8613 141.509 60.276 141.776 59.6317C142.043 58.9875 142.18 58.297 142.18 57.5997C142.227 56.8855 142.123 56.1695 141.874 55.4984C141.626 54.8273 141.238 54.2163 140.737 53.7055C140.235 53.1947 139.632 52.7957 138.965 52.5344C138.299 52.2732 137.585 52.1557 136.87 52.1897V52.1997ZM127.3 52.5997H122.3V65.7997H118.81V52.5897H113.81V49.3997H127.3V52.5997ZM104.48 62.5997H111.63V65.7897H100.94V49.3997H111.43V52.5897H104.43V55.7597H110.81V58.9997H104.48V62.5997ZM97.69 49.3997V65.7897H94.16V52.5897H88.88L88.43 59.3797C88.15 63.7097 86.2 65.9997 81.79 65.9997V62.6797C83.7 62.6797 84.79 61.6097 84.96 59.2897L85.55 49.3997H97.69ZM171.6 66.1997C166.44 66.1997 162.76 62.6097 162.76 57.5897C162.76 52.5697 166.44 48.9997 171.6 48.9997C176.76 48.9997 180.45 52.5997 180.45 57.6097C180.45 62.6197 176.76 66.1997 171.6 66.1997ZM171.6 52.1997C170.886 52.1674 170.174 52.2858 169.509 52.547C168.844 52.8081 168.242 53.2064 167.741 53.7157C167.24 54.225 166.852 54.8341 166.602 55.5033C166.352 56.1724 166.246 56.8867 166.29 57.5997C166.29 59.008 166.849 60.3586 167.845 61.3544C168.841 62.3502 170.192 62.9097 171.6 62.9097C173.008 62.9097 174.359 62.3502 175.355 61.3544C176.351 60.3586 176.91 59.008 176.91 57.5997C176.957 56.8855 176.853 56.1695 176.604 55.4984C176.356 54.8273 175.968 54.2163 175.467 53.7055C174.965 53.1947 174.362 52.7957 173.695 52.5344C173.029 52.2732 172.315 52.1557 171.6 52.1897V52.1997Z" fill="#123274"></path> </g> <defs> <clipPath id="clip0_1484_8"> <rect width="155.45" height="56.49" fill="white" transform="translate(25 22)"></rect> </clipPath> </defs> </svg> 