<svg role="img" aria-labelledby="letovoAlumniLogoTitle" xmlns="http://www.w3.org/2000/svg" version="1.1" width="164" height="60" viewBox="0 0 164 60">
<title id="letovoAlumniLogoTitle">LETOVO Alumni</title>
<defs>
<clipPath id="clip_1">
<path transform="matrix(1,0,0,-1,-356,343.987)" d="M356 283.987H520V343.987H356Z"/>
</clipPath>
<clipPath id="clip_2">
<path transform="matrix(1,0,0,-1,-356,343.987)" d="M0 0H841.89V473.987H0Z"/>
</clipPath>
<clipPath id="clip_3">
<path transform="matrix(1,0,0,-1,-356,343.987)" d="M0 473.987H841.89V0H0Z"/>
</clipPath>
</defs>
<g clip-path="url(#clip_1)">
<g clip-path="url(#clip_2)">
<g clip-path="url(#clip_3)">
<path transform="matrix(1,0,0,-1,119.88199,9.277985)" d="M0 0 3.769-10.113 7.537 0H11.187L5.241-15.142H2.296L-3.649 0ZM-49.884-12.193H-56.495V0H-59.757L-59.758-15.142H-49.884ZM19.955-2.576C17.068-2.576 15.049-4.562 15.049-7.569 15.049-10.577 17.068-12.563 19.955-12.563 22.842-12.563 24.86-10.577 24.86-7.569 24.86-4.562 22.842-2.576 19.955-2.576M19.955-15.524C15.188-15.524 11.786-12.199 11.786-7.569 11.786-2.939 15.188 .386 19.955 .386 24.722 .386 28.123-2.939 28.123-7.569 28.123-12.199 24.722-15.524 19.955-15.524M-12.708-2.576C-15.594-2.576-17.614-4.562-17.614-7.569-17.614-10.577-15.594-12.563-12.708-12.563-9.821-12.563-7.802-10.577-7.802-7.569-7.802-4.562-9.821-2.576-12.708-2.576M-12.708-15.524C-17.475-15.524-20.876-12.199-20.876-7.569-20.876-2.939-17.475 .386-12.708 .386-7.94 .386-4.54-2.939-4.54-7.569-4.54-12.199-7.94-15.524-12.708-15.524M-43.792-12.193H-37.181V-15.142H-47.054V0H-37.365V-2.949H-43.792V-5.88H-37.892L-37.882-8.827H-43.792ZM-22.271-2.949H-26.85V-15.142H-30.112L-30.113-2.949H-34.691V0H-22.271Z" fill="#0d3174" fill-rule="evenodd"/>
<path transform="matrix(1,0,0,-1,7.627014,36.045015)" d="M0 0 16.869 9.737 37.098-1.937V.396L16.869 12.071-.091 2.28V1.933C-.091 .912 0 0 0 0M-.091 7.158 16.869 16.949 37.098 5.27V2.938L16.869 14.615-.091 4.825Z" fill="#fdc300"/>
<path transform="matrix(1,0,0,-1,4.2789919,3.9710084)" d="M0 0V-15.088L3.259-13.206V-3.259H37.188V-13.206L40.447-15.088V0ZM3.257-29.793V-29.793-30.141C3.257-31.161 3.348-32.073 3.348-32.073 3.357-32.885 3.517-33.855 3.82-34.536L20.223-25.065 40.447-36.742V-40.5L20.223-52.176 5.232-42.848 8.505-40.958 20.223-48.418 37.188-38.618 20.223-28.824 1.946-39.377C.755-37.051 .076-34.429 0-31.888-.01-31.543 .003-20.455 .003-20.455L20.223-8.779 20.228-8.782 40.444-20.454 40.447-20.455V-24.213L20.223-12.537 3.257-22.335Z" fill="#0d3174" fill-rule="evenodd"/>
<path transform="matrix(1,0,0,-1,67.35501,38.794008)" d="M0 0-1.137 3.373C-1.186 3.531-1.259 3.761-1.356 4.061-1.455 4.359-1.547 4.665-1.632 4.977-1.718 5.288-1.791 5.548-1.852 5.756-1.913 5.499-1.989 5.212-2.081 4.895-2.173 4.576-2.258 4.277-2.338 3.996-2.417 3.715-2.481 3.507-2.53 3.373L-3.685 0ZM1.796-5.48 .604-2.017H-4.326L-5.499-5.48H-7.992L-3.189 7.662H-.514L4.289-5.48Z" fill="#fdc300"/>
<path transform="matrix(1,0,0,-1,-356,343.987)" d="M431.456 299.713H429.146V313.644H431.456Z" fill="#fdc300"/>
<path transform="matrix(1,0,0,-1,87.224,34.339998)" d="M0 0V-9.935H-1.815L-2.127-8.651H-2.236C-2.555-9.165-2.994-9.538-3.557-9.77-4.118-10.002-4.711-10.118-5.334-10.118-6.446-10.118-7.317-9.831-7.946-9.257-8.576-8.683-8.891-7.76-8.891-6.488V0H-6.581V-6.03C-6.581-6.775-6.435-7.332-6.141-7.698-5.848-8.064-5.384-8.248-4.748-8.248-3.819-8.248-3.181-7.955-2.832-7.368-2.484-6.782-2.31-5.945-2.31-4.857V0Z" fill="#fdc300"/>
<path transform="matrix(1,0,0,-1,101.55701,34.156007)" d="M0 0C1.124 0 1.971-.287 2.539-.861 3.107-1.437 3.392-2.364 3.392-3.647V-10.118H1.082V-4.088C1.082-2.609 .52-1.87-.604-1.87-1.411-1.87-1.985-2.133-2.327-2.658-2.67-3.184-2.841-3.947-2.841-4.949V-10.118H-5.15V-4.088C-5.15-2.609-5.719-1.87-6.855-1.87-7.698-1.87-8.278-2.163-8.597-2.75-8.914-3.336-9.073-4.173-9.073-5.261V-10.118H-11.383V-.184H-9.604L-9.274-1.485H-9.146C-8.841-.972-8.426-.596-7.899-.357-7.375-.119-6.824 0-6.25 0-5.505 0-4.879-.122-4.371-.367-3.864-.611-3.477-1.002-3.207-1.54H-3.024C-2.719-1.002-2.291-.611-1.741-.367-1.191-.122-.611 0 0 0" fill="#fdc300"/>
<path transform="matrix(1,0,0,-1,113.16101,34.156007)" d="M0 0C1.111 0 1.982-.287 2.611-.861 3.241-1.437 3.556-2.364 3.556-3.647V-10.118H1.246V-4.106C1.246-3.36 1.1-2.802 .806-2.429 .513-2.057 .048-1.87-.587-1.87-1.516-1.87-2.151-2.163-2.493-2.75-2.836-3.336-3.007-4.173-3.007-5.261V-10.118H-5.316V-.184H-3.538L-3.208-1.485H-3.08C-2.763-.972-2.325-.596-1.77-.357-1.213-.119-.624 0 0 0" fill="#fdc300"/>
<path transform="matrix(1,0,0,-1,-356,343.987)" d="M477.922 299.713H475.612V309.648H477.922ZM476.767 313.478C477.109 313.478 477.409 313.389 477.666 313.213 477.922 313.035 478.051 312.72 478.051 312.268 478.051 311.816 477.922 311.499 477.666 311.315 477.409 311.132 477.109 311.041 476.767 311.041 476.413 311.041 476.11 311.132 475.86 311.315 475.609 311.499 475.484 311.816 475.484 312.268 475.484 312.72 475.609 313.035 475.86 313.213 476.11 313.389 476.413 313.478 476.767 313.478" fill="#fdc300"/>
<path transform="matrix(1,0,0,-1,358.68403,34.298006)" d="M0 0V-3.972H4.415V0H6.743V-10.013H4.415V-5.764H0V-10.013H-2.328V0ZM-6.059 4.249C-6.121 3.621-6.293 3.076-6.577 2.614-6.86 2.152-7.288 1.798-7.861 1.552-8.433 1.305-9.2 1.182-10.161 1.182-11.146 1.182-11.916 1.302-12.47 1.543-13.024 1.783-13.424 2.134-13.671 2.596-13.917 3.057-14.065 3.608-14.114 4.249H-12.008C-11.959 3.572-11.789 3.122-11.5 2.9-11.211 2.679-10.746 2.568-10.105 2.568-9.563 2.568-9.126 2.688-8.793 2.928-8.461 3.168-8.264 3.608-8.202 4.249ZM-12.858 0V-4.766C-12.858-4.988-12.87-5.293-12.895-5.681-12.919-6.069-12.944-6.438-12.969-6.789-12.993-7.14-13.012-7.389-13.024-7.537L-8.128 0H-5.32V-10.013H-7.556V-5.302C-7.556-5.019-7.547-4.692-7.528-4.323-7.51-3.953-7.488-3.602-7.463-3.27-7.439-2.937-7.42-2.679-7.408-2.494L-12.285-10.013H-15.093V0ZM-20.321-5.284-21.54-5.32C-22.563-5.357-23.271-5.533-23.665-5.847-24.059-6.161-24.256-6.583-24.256-7.112-24.256-7.593-24.117-7.934-23.84-8.138-23.563-8.341-23.197-8.443-22.741-8.443-22.064-8.443-21.491-8.249-21.023-7.861-20.555-7.473-20.321-6.897-20.321-6.133ZM-21.965 .185C-20.672 .185-19.69-.099-19.019-.665-18.348-1.232-18.012-2.106-18.012-3.288V-10.013H-19.656L-20.118-8.627H-20.192C-20.623-9.169-21.078-9.567-21.559-9.819-22.039-10.071-22.692-10.198-23.517-10.198-24.416-10.198-25.161-9.945-25.752-9.44-26.344-8.935-26.639-8.153-26.639-7.094-26.639-6.059-26.26-5.284-25.503-4.766-24.746-4.249-23.597-3.96-22.058-3.898L-20.321-3.843V-3.344C-20.321-2.704-20.475-2.248-20.783-1.977-21.091-1.706-21.522-1.57-22.076-1.57-22.581-1.57-23.064-1.641-23.526-1.783-23.988-1.924-24.447-2.1-24.903-2.309L-25.642-.684C-25.149-.425-24.586-.216-23.951-.055-23.317 .104-22.655 .185-21.965 .185M-28.948-10.013H-31.276V-1.792H-33.955C-34.127-3.8-34.349-5.419-34.62-6.651-34.891-7.882-35.26-8.778-35.728-9.339-36.196-9.899-36.806-10.179-37.557-10.179-38.099-10.179-38.53-10.099-38.85-9.939V-8.11C-38.628-8.209-38.382-8.258-38.111-8.258-37.853-8.258-37.616-8.122-37.4-7.851-37.185-7.581-36.987-7.131-36.809-6.503-36.63-5.875-36.47-5.028-36.328-3.963-36.187-2.897-36.061-1.577-35.95 0H-28.948ZM-47.145 0V-3.972H-42.73V0H-40.402V-10.013H-42.73V-5.764H-47.145V-10.013H-49.473V0ZM-61.979-3.399C-61.979-4.889-61.681-6.059-61.083-6.909-60.486-7.759-59.547-8.184-58.266-8.184-56.948-8.184-56-7.759-55.421-6.909-54.842-6.059-54.553-4.889-54.553-3.399-54.553-1.909-54.842-.739-55.421 .111-56 .961-56.942 1.386-58.248 1.386-59.541 1.386-60.486 .961-61.083 .111-61.681-.739-61.979-1.909-61.979-3.399M-52.059-3.399C-52.059-4.766-52.284-5.958-52.733-6.974-53.183-7.99-53.869-8.781-54.793-9.348-55.717-9.914-56.874-10.198-58.266-10.198-59.682-10.198-60.846-9.914-61.758-9.348-62.669-8.781-63.349-7.987-63.799-6.965-64.249-5.942-64.473-4.748-64.473-3.381-64.473-2.026-64.249-.841-63.799 .176-63.349 1.192-62.666 1.98-61.748 2.54-60.831 3.1-59.664 3.381-58.248 3.381-56.856 3.381-55.701 3.1-54.784 2.54-53.866 1.98-53.183 1.192-52.733 .176-52.284-.841-52.059-2.032-52.059-3.399" fill="#fdc300"/>
<path transform="matrix(1,0,0,-1,362.086,21.475007)" d="M0 0H-3.482V3.362H0C1.081 3.362 1.616 2.485 1.616 1.682 1.616 .868 1.062 0 0 0M-3.482 9.246H-.36C.619 9.246 1.302 8.674 1.33 7.87 1.367 6.992 .73 6.318-.36 6.318H-3.482ZM2.494 5.053C3.649 5.755 4.406 6.974 4.406 8.322 4.406 10.558 2.448 12.193-.24 12.193H-6.743V-2.946H-.093C2.697-2.946 4.794-1.09 4.812 1.367 4.84 3.861 3.325 4.618 2.494 5.053" fill="#0d3174" fill-rule="evenodd"/>
<path transform="matrix(1,0,0,-1,344.80403,21.843995)" d="M0 0C-2.882 0-4.905 1.985-4.905 4.997-4.905 7.999-2.882 9.985 0 9.985 2.891 9.985 4.905 7.999 4.905 4.997 4.905 1.985 2.891 0 0 0M0 12.95C-4.766 12.95-8.166 9.625-8.166 4.997-8.166 .369-4.766-2.956 0-2.956 4.766-2.956 8.175 .369 8.175 4.997 8.175 9.625 4.766 12.95 0 12.95" fill="#0d3174" fill-rule="evenodd"/>
<path transform="matrix(1,0,0,-1,335.96803,12.229004)" d="M0 0H-4.578V-12.192H-4.579-7.84-7.841V0H-12.419V2.949H0Z" fill="#0d3174" fill-rule="evenodd"/>
<path transform="matrix(1,0,0,-1,314.883,21.471985)" d="M0 0H6.611V-2.949H-3.262V12.192H6.427V9.243H0V6.312H5.899L5.91 3.366H0Z" fill="#0d3174" fill-rule="evenodd"/>
<path transform="matrix(1,0,0,-1,308.61799,9.279999)" d="M0 0V-15.142H-3.262V-2.949H-8.142L-8.555-9.219C-8.819-13.221-10.619-15.325-14.686-15.325V-12.265C-12.929-12.223-11.891-11.278-11.764-9.141L-11.218 0Z" fill="#0d3174" fill-rule="evenodd"/>
<path transform="matrix(1,0,0,-1,376.88398,21.843995)" d="M0 0C-2.882 0-4.905 1.985-4.905 4.997-4.905 7.999-2.882 9.985 0 9.985 2.891 9.985 4.914 7.999 4.914 4.997 4.914 1.985 2.891 0 0 0M0 12.95C-4.766 12.95-8.166 9.625-8.166 4.997-8.166 .369-4.766-2.956 0-2.956 4.775-2.956 8.175 .369 8.175 4.997 8.175 9.625 4.775 12.95 0 12.95" fill="#0d3174" fill-rule="evenodd"/>
<path transform="matrix(1,0,0,-1,243.63098,36.045015)" d="M0 0 16.869 9.737 37.098-1.937V.396L16.869 12.071-.091 2.28V1.933C-.091 .912 0 0 0 0M-.091 7.158 16.869 16.949 37.098 5.27V2.938L16.869 14.615-.091 4.825Z" fill="#fdc300"/>
<path transform="matrix(1,0,0,-1,240.28302,3.9710084)" d="M0 0V-15.088L3.259-13.206V-3.259H37.188V-13.206L40.447-15.088V0ZM3.257-29.793V-29.793-30.141C3.257-31.161 3.348-32.073 3.348-32.073 3.357-32.885 3.517-33.855 3.82-34.536L20.223-25.065 40.447-36.742V-40.5L20.223-52.176 5.232-42.848 8.505-40.958 20.223-48.418 37.188-38.618 20.223-28.824 1.945-39.377C.754-37.051 .075-34.429 0-31.888-.01-31.543 .003-20.455 .003-20.455L20.223-8.779 20.228-8.782 40.444-20.454 40.447-20.455V-24.213L20.223-12.537 3.257-22.335Z" fill="#0d3174" fill-rule="evenodd"/>
<path transform="matrix(1,0,0,-1,-183.737,-43.09201)" d="M0 0-.333 5.239H-1.351L-1.468 3.655C-1.603 1.854-1.918 .549-3.556-.189L-3.925 .99C-3.07 1.477-2.953 2.449-2.863 3.664L-2.674 6.193H.999L1.494 0Z" fill="#0d3174"/>
<path transform="matrix(1,0,0,-1,-179.282,-47.178987)" d="M0 0C-.585 0-.783-.684-.783-1.629-.783-2.574-.585-3.276 0-3.276 .585-3.276 .783-2.574 .783-1.629 .783-.684 .585 0 0 0M0-4.186C-1.449-4.186-2.188-3.124-2.188-1.656-2.188-.188-1.449 .864 0 .864 1.449 .864 2.188-.188 2.188-1.656 2.188-3.124 1.449-4.186 0-4.186" fill="#0d3174"/>
<path transform="matrix(1,0,0,-1,-174.783,-47.035005)" d="M0 0V-3.943H-1.404V.909H1.486V0Z" fill="#0d3174"/>
<path transform="matrix(1,0,0,-1,-170.633,-47.178987)" d="M0 0C-.585 0-.783-.684-.783-1.629-.783-2.574-.585-3.276 0-3.276 .585-3.276 .783-2.574 .783-1.629 .783-.684 .585 0 0 0M0-4.186C-1.449-4.186-2.188-3.124-2.188-1.656-2.188-.188-1.449 .864 0 .864 1.449 .864 2.188-.188 2.188-1.656 2.188-3.124 1.449-4.186 0-4.186" fill="#0d3174"/>
<path transform="matrix(1,0,0,-1,-163.253,-42.99301)" d="M0 0C-1.197 0-2.062 .945-2.062 2.529-2.062 4.114-1.18 5.05 0 5.05 .513 5.05 .918 4.924 1.225 4.699L.927 3.925C.774 4.042 .549 4.114 .324 4.114-.243 4.114-.63 3.528-.63 2.557-.63 1.593-.243 .999 .324 .999 .549 .999 .765 1.071 .918 1.187L1.225 .351C.918 .126 .513 0 0 0" fill="#0d3174"/>
<path transform="matrix(1,0,0,-1,-158.394,-43.164)" d="M0 0-.954-2.008H-2.484L-1.477-.019C-2.376 1.422-2.935 3.061-3.105 4.78H-1.665C-1.539 3.529-1.287 2.322-.792 1.161H-.773C-.404 2.296-.162 3.511-.035 4.78H1.333C1.162 3.133 .702 1.477 0 0" fill="#0d3174"/>
<path transform="matrix(1,0,0,-1,-154.398,-46.998994)" d="M0 0C-.162 0-.36-.036-.549-.099-.594-.405-.621-.738-.621-1.062-.621-2.458-.396-3.097 .162-3.097 .711-3.097 .928-2.413 .928-1.594 .928-.576 .648 0 0 0M.162-4.006C-1.396-4.006-2.008-2.854-2.008-1.062-2.008 .756-1.197 2.413 .504 2.683L1.882 2.908V1.953L.855 1.765C.243 1.647-.135 1.233-.352 .675-.145 .729 .062 .747 .243 .747 1.513 .747 2.322-.135 2.322-1.594 2.322-2.935 1.539-4.006 .162-4.006" fill="#0d3174"/>
<path transform="matrix(1,0,0,-1,-149.33,-46.998994)" d="M0 0C-.162 0-.36-.036-.549-.099-.594-.405-.621-.738-.621-1.062-.621-2.458-.396-3.097 .162-3.097 .711-3.097 .927-2.413 .927-1.594 .927-.576 .648 0 0 0M.162-4.006C-1.396-4.006-2.008-2.854-2.008-1.062-2.008 .756-1.197 2.413 .504 2.683L1.882 2.908V1.953L.855 1.765C.243 1.647-.135 1.233-.352 .675-.145 .729 .063 .747 .243 .747 1.513 .747 2.322-.135 2.322-1.594 2.322-2.935 1.539-4.006 .162-4.006" fill="#0d3174"/>
<path transform="matrix(1,0,0,-1,-144.273,-47.214998)" d="M0 0C-.162 0-.307-.026-.424-.072V-3.295C-.333-3.322-.207-3.349-.055-3.349 .693-3.349 1.026-2.764 1.026-1.674 1.026-.594 .756 0 0 0M.279-4.187C-.009-4.187-.279-4.159-.424-4.105V-6.059H-1.828V.478C-1.297 .721-.666 .828 .009 .828 1.521 .828 2.412-.026 2.412-1.656 2.412-3.214 1.548-4.187 .279-4.187" fill="#0d3174"/>
<path transform="matrix(1,0,0,-1,-138.973,-47.224)" d="M0 0C-.576 0-.891-.558-.891-1.377V-1.503L.802-1.242C.793-.45 .55 0 0 0M2.125-1.773-.792-2.188C-.702-2.871-.261-3.268 .424-3.268 .864-3.268 1.351-3.142 1.647-2.988L1.972-3.871C1.521-4.096 .864-4.23 .198-4.23-1.359-4.23-2.169-3.169-2.169-1.692-2.169-.171-1.35 .819 .055 .819 1.414 .819 2.134-.062 2.134-1.566 2.134-1.638 2.134-1.674 2.125-1.773" fill="#0d3174"/>
<path transform="matrix(1,0,0,-1,-133.212,-43.09201)" d="M0 0V2.062H-1.332V0H-2.736V4.853H-1.332V2.863H0V4.853H1.405V0Z" fill="#0d3174"/>
<path transform="matrix(1,0,0,-1,-127.847,-47.143007)" d="M0 0H-.936L-1.044-1.053C-1.125-1.872-1.242-2.529-1.638-3.178H.262ZM1.972-5.365H1.009L.964-4.051H-2.151L-2.205-5.365H-3.169L-3.259-3.33C-2.619-2.835-2.431-2.017-2.331-1.053L-2.133 .802H1.216L1.594-3.142 2.071-3.321Z" fill="#0d3174"/>
<path transform="matrix(1,0,0,-1,-123.149,-47.178987)" d="M0 0C-.585 0-.783-.684-.783-1.629-.783-2.574-.585-3.276 0-3.276 .585-3.276 .783-2.574 .783-1.629 .783-.684 .585 0 0 0M0-4.186C-1.449-4.186-2.188-3.124-2.188-1.656-2.188-.188-1.449 .864 0 .864 1.449 .864 2.188-.188 2.188-1.656 2.188-3.124 1.449-4.186 0-4.186" fill="#0d3174"/>
<path transform="matrix(1,0,0,-1,-118.308,-45.324007)" d="M0 0H-.378V-1.521C-.234-1.575-.036-1.603 .135-1.603 .774-1.603 1.098-1.332 1.098-.828 1.098-.288 .765 0 0 0M.117 2.035C-.055 2.035-.243 2.008-.378 1.954V.55H0C.72 .55 1.008 .828 1.008 1.323 1.008 1.818 .693 2.035 .117 2.035M.099-2.331C-.567-2.331-1.27-2.196-1.765-1.972V2.368C-1.252 2.602-.585 2.719 .081 2.719 1.566 2.719 2.35 2.278 2.35 1.423 2.35 .828 1.899 .441 1.351 .324V.307C1.998 .153 2.503-.279 2.503-.9 2.503-1.827 1.701-2.331 .099-2.331" fill="#0d3174"/>
<path transform="matrix(1,0,0,-1,151.89499,-98.23599)" d="M0 0V2.018C-.252 1.877-.637 1.779-.966 1.779-1.82 1.779-2.353 2.228-2.353 3.082V4.818H-1.709V3.082C-1.709 2.535-1.4 2.234-.854 2.234-.581 2.234-.217 2.312 0 2.438V4.818H.645V0Z" fill="#0d3174"/>
<path transform="matrix(1,0,0,-1,155.5,-100.36499)" d="M0 0C-.959-.111-1.526-.378-1.526-1.043-1.526-1.555-1.211-1.842-.623-1.842-.385-1.842-.146-1.793 0-1.716ZM-.679-2.199C-1.582-2.199-2.114-1.807-2.114-1.058-2.114-.146-1.218 .203 0 .322V.554C0 1.072-.279 1.303-.805 1.303-1.134 1.303-1.491 1.205-1.751 1.064L-1.897 1.443C-1.582 1.604-1.155 1.716-.749 1.716 .07 1.716 .575 1.331 .575 .49V-1.933C.273-2.094-.175-2.199-.679-2.199" fill="#0d3174"/>
<path transform="matrix(1,0,0,-1,158.38501,-98.166019)" d="M0 0C-.911 0-1.464 .806-1.464 1.961-1.464 3.117-.904 3.915 0 3.915 .35 3.915 .644 3.824 .847 3.67L.7 3.306C.553 3.418 .329 3.495 .104 3.495-.498 3.495-.834 2.844-.834 1.976-.834 1.121-.491 .448 .104 .448 .329 .448 .546 .519 .693 .631L.847 .245C.644 .092 .35 0 0 0" fill="#0d3174"/>
<path transform="matrix(1,0,0,-1,161.21997,-101.60501)" d="M0 0V-3.369H-.616V0H-1.52V.406H.903V0Z" fill="#0d3174"/>
<path transform="matrix(1,0,0,-1,164.026,-100.13501)" d="M0 0C-.203 0-.413-.028-.574-.077V-1.492C-.406-1.569-.188-1.611 .015-1.611 .624-1.611 .98-1.324 .98-.812 .98-.231 .596 0 0 0M.015-1.969C-.413-1.969-.875-1.856-1.184-1.702V1.877H-.574V.266C-.385 .314-.182 .35 .035 .35 .925 .35 1.598-.008 1.598-.812 1.598-1.556 .932-1.969 .015-1.969" fill="#0d3174"/>
<path transform="matrix(1,0,0,-1,169.33301,-98.23599)" d="M0 0V4.041C-.273 3.88-.827 3.74-1.232 3.705L-1.317 4.076C-.638 4.174-.063 4.427 .188 4.818H.616V0Z" fill="#0d3174"/>
<path transform="matrix(1,0,0,-1,-181.631,-98.811008)" d="M0 0V4.816H-1.092V.764H-2.24V4.816H-3.332V.764H-4.48V4.816H-5.572V0ZM4.375 0 3.927 .959C3.71 1.422 3.395 1.807 2.94 2.052L4.305 3.773H3.143L1.974 2.072H1.96V3.773H.875V0H1.96V1.855C2.415 1.666 2.667 1.253 2.849 .791L3.164 0ZM7.98 1.891C7.98 3.031 7.406 3.851 6.279 3.851 5.152 3.851 4.578 3.031 4.578 1.891 4.578 .749 5.152-.077 6.279-.077 7.406-.077 7.98 .749 7.98 1.891M6.888 1.911C6.888 1.177 6.734 .63 6.279 .63 5.824 .63 5.67 1.177 5.67 1.911 5.67 2.646 5.824 3.179 6.279 3.179 6.734 3.179 6.888 2.646 6.888 1.911M12.159 0 11.795 3.773H9.072L8.932 2.101C8.883 1.526 8.799 .98 8.281 .722L8.54-.119C9.667 .315 9.891 1.064 9.982 2.101L10.073 3.144H10.794L11.046 0ZM15.876 .203V2.472C15.876 3.458 15.288 3.851 14.364 3.851 13.867 3.851 13.335 3.731 12.957 3.563L13.195 2.919C13.468 3.053 13.853 3.157 14.203 3.157 14.623 3.157 14.854 2.996 14.854 2.633V2.464C13.692 2.353 12.74 2.052 12.74 1.12 12.74 .329 13.321-.077 14.399-.077 15.036-.077 15.554 .035 15.876 .203M14.854 .603C14.756 .554 14.616 .532 14.455 .532 14.007 .532 13.762 .742 13.762 1.162 13.762 1.652 14.126 1.876 14.854 1.953ZM21.525 1.001 20.755 2.339 21.525 3.683 20.916 4.025 19.943 2.339 20.916 .651ZM19.999 1.001 19.229 2.339 19.999 3.683 19.39 4.025 18.417 2.339 19.39 .651ZM26.222 0 25.836 4.816H22.98L22.834 2.85C22.764 1.904 22.673 1.148 22.008 .771L22.294-.146C23.569 .428 23.814 1.442 23.918 2.843L24.01 4.074H24.801L25.059 0ZM30.162 1.995C30.162 3.164 29.603 3.851 28.545 3.851 27.454 3.851 26.817 3.08 26.817 1.897 26.817 .749 27.447-.077 28.657-.077 29.176-.077 29.686 .028 30.037 .203L29.784 .89C29.553 .771 29.176 .673 28.833 .673 28.301 .673 27.958 .98 27.888 1.513L30.156 1.834C30.162 1.911 30.162 1.939 30.162 1.995M29.127 2.247 27.811 2.045V2.143C27.811 2.779 28.056 3.214 28.503 3.214 28.93 3.214 29.119 2.863 29.127 2.247M33.229 3.066V3.773H30.555V3.066H31.346V0H32.438V3.066ZM37.001 1.891C37.001 3.031 36.427 3.851 35.301 3.851 34.174 3.851 33.6 3.031 33.6 1.891 33.6 .749 34.174-.077 35.301-.077 36.427-.077 37.001 .749 37.001 1.891M35.91 1.911C35.91 1.177 35.756 .63 35.301 .63 34.845 .63 34.692 1.177 34.692 1.911 34.692 2.646 34.845 3.179 35.301 3.179 35.756 3.179 35.91 2.646 35.91 1.911M41.012 1.036C41.012 1.52 40.621 1.855 40.116 1.975V1.988C40.543 2.079 40.894 2.381 40.894 2.843 40.894 3.508 40.285 3.851 39.129 3.851 38.612 3.851 38.094 3.76 37.695 3.577V.203C38.08 .028 38.625-.077 39.144-.077 40.389-.077 41.012 .315 41.012 1.036M39.851 2.766C39.851 2.381 39.626 2.163 39.067 2.163H38.773V3.256C38.877 3.298 39.025 3.318 39.158 3.318 39.605 3.318 39.851 3.15 39.851 2.766M39.921 1.093C39.921 .7 39.669 .49 39.171 .49 39.039 .49 38.885 .512 38.773 .554V1.736H39.067C39.662 1.736 39.921 1.513 39.921 1.093M44.918 1.891C44.918 3.031 44.344 3.851 43.217 3.851 42.091 3.851 41.517 3.031 41.517 1.891 41.517 .749 42.091-.077 43.217-.077 44.344-.077 44.918 .749 44.918 1.891M43.826 1.911C43.826 1.177 43.673 .63 43.217 .63 42.762 .63 42.608 1.177 42.608 1.911 42.608 2.646 42.762 3.179 43.217 3.179 43.673 3.179 43.826 2.646 43.826 1.911M48.628 2.339 47.656 4.025 47.046 3.683 47.816 2.339 47.046 1.001 47.656 .651ZM47.103 2.339 46.129 4.025 45.521 3.683 46.29 2.339 45.521 1.001 46.129 .651Z" fill="#0d3174"/>
<path transform="matrix(1,0,0,-1,321.28199,-98.811008)" d="M0 0-.385 4.815H-2.702L-2.828 3.178C-2.912 2.051-3.031 .959-3.843 .441L-3.661-.112C-2.492 .539-2.317 1.778-2.205 3.157L-2.107 4.389H-.987L-.658 0ZM3.759 1.89C3.759 3.017 3.29 3.843 2.268 3.843 1.246 3.843 .777 3.017 .777 1.89 .777 .756 1.246-.07 2.268-.07 3.29-.07 3.759 .756 3.759 1.89M3.143 1.904C3.143 1.063 2.926 .343 2.268 .343 1.61 .343 1.393 1.063 1.393 1.904 1.393 2.744 1.61 3.451 2.268 3.451 2.926 3.451 3.143 2.744 3.143 1.904M6.643 3.367V3.772H4.627V0H5.243V3.367ZM10.052 1.89C10.052 3.017 9.583 3.843 8.561 3.843 7.539 3.843 7.07 3.017 7.07 1.89 7.07 .756 7.539-.07 8.561-.07 9.583-.07 10.052 .756 10.052 1.89M9.436 1.904C9.436 1.063 9.219 .343 8.561 .343 7.903 .343 7.686 1.063 7.686 1.904 7.686 2.744 7.903 3.451 8.561 3.451 9.219 3.451 9.436 2.744 9.436 1.904M12.907 3.367V3.772H10.486V3.367H11.389V0H12.005V3.367ZM16.45 0V3.772H15.82L14.371 1.211C14.287 1.063 14.217 .917 14.154 .756H14.14C14.154 .924 14.161 1.092 14.161 1.26V3.772H13.622V0H14.168L15.7 2.688C15.785 2.842 15.855 2.989 15.918 3.144H15.932C15.918 2.968 15.911 2.814 15.911 2.639V0ZM20.181 0V3.772H17.444V0H18.06V3.388H19.565V0Z" fill="#0d3174"/>
<path transform="matrix(1,0,0,-1,-286.4376,-43.47)" d="M0 0V4.718C-.271 4.592-.837 4.465-1.458 4.43L-1.639 5.267C-.576 5.401 .162 5.789 .405 6.193H1.423V0Z" fill="#0d3174"/>
<path transform="matrix(1,0,0,-1,-282.8829,-43.389009)" d="M0 0C-.441 0-.801 .36-.801 .802-.801 1.242-.441 1.603 0 1.603 .441 1.603 .802 1.242 .802 .802 .802 .36 .441 0 0 0" fill="#0d3174"/>
<path transform="matrix(1,0,0,-1,-281.5148,-43.47)" d="M0 0 2.214 3.232C2.521 3.682 2.638 4.051 2.638 4.394 2.638 4.915 2.34 5.275 1.629 5.275 1.242 5.275 .801 5.158 .521 5.032L.188 5.924C.639 6.148 1.269 6.293 1.926 6.293 3.457 6.293 4.104 5.527 4.104 4.537 4.104 4.033 3.853 3.511 3.285 2.782L2.034 1.161H4.149V0Z" fill="#0d3174"/>
<path transform="matrix(1,0,0,-1,-275.2062,-43.47)" d="M0 0V4.718C-.27 4.592-.837 4.465-1.458 4.43L-1.638 5.267C-.576 5.401 .162 5.789 .405 6.193H1.423V0Z" fill="#0d3174"/>
</g>
</g>
</g>
</svg>
